<?xml version="1.0" standalone="no"?><!DOCTYPE svg PUBLIC "-//W3C//DTD SVG 1.1//EN" "http://www.w3.org/Graphics/SVG/1.1/DTD/svg11.dtd"><svg t="1733991508466" class="icon" viewBox="0 0 1024 1024" version="1.1" xmlns="http://www.w3.org/2000/svg" p-id="6067" data-spm-anchor-id="a313x.search_index.0.i0.7b4b3a8102Ktef" width="256" height="256" xmlns:xlink="http://www.w3.org/1999/xlink"><path d="M324.032 512m-156.032 0a2.438 2.438 0 1 0 312.064 0 2.438 2.438 0 1 0-312.064 0Z" fill="#2c2c2c" p-id="6068" data-spm-anchor-id="a313x.search_index.0.i2.7b4b3a8102Ktef" class=""></path><path d="M700.032 512m-156.032 0a2.438 2.438 0 1 0 312.064 0 2.438 2.438 0 1 0-312.064 0Z" fill="#2c2c2c" p-id="6069" data-spm-anchor-id="a313x.search_index.0.i3.7b4b3a8102Ktef" class=""></path><path d="M512 0C229.248 0 0 229.248 0 512s229.248 512 512 512 512-229.248 512-512S794.752 0 512 0zM700.032 732.032c-80 0-149.504-43.392-188.032-107.392-38.528 64.064-107.968 107.392-188.032 107.392-121.344 0-220.032-98.688-220.032-220.032s98.688-220.032 220.032-220.032c80 0 149.504 43.392 188.032 107.392 38.528-64.064 107.968-107.392 188.032-107.392 121.344 0 220.032 98.688 220.032 220.032S821.312 732.032 700.032 732.032z" fill="#2c2c2c" p-id="6070" data-spm-anchor-id="a313x.search_index.0.i1.7b4b3a8102Ktef" class="selected"></path></svg>